<svg width="55" height="59" viewBox="0 0 55 59" fill="none" xmlns="http://www.w3.org/2000/svg">
<path d="M57.9745 28.4139C57.6349 27.4116 56.7368 26.7426 55.7306 26.7426H47.3392V5.62881C47.3392 2.52021 44.9581 0 42.0201 0H14.4251C11.4871 0 9.10596 2.52021 9.10596 5.62881V26.7426H2.38491C1.3782 26.7426 0.479634 27.4116 0.139968 28.4139C-0.199697 29.4167 0.0922873 30.5379 0.86993 31.2133L27.5418 54.4256C28.4222 55.192 29.6914 55.191 30.5717 54.4256L57.2446 31.2133C58.0222 30.537 58.3142 29.4167 57.9745 28.4139Z" transform="translate(0 58.1145) rotate(-90)" fill="url(#paint0_linear)"/>
<path d="M42.5703 26.7424C42.5703 18.7858 42.5703 3.1059 42.5703 3.1059C42.5703 1.39332 41.2529 0 39.6352 0H12.0402C10.4215 0 9.1051 1.39332 9.1051 3.1059C9.1051 3.1059 9.1051 19.7842 9.1051 26.7424H0L26.6719 49.9547L53.3457 26.7424H42.5703V26.7424Z" transform="translate(2.52291 55.7296) rotate(-90)" fill="url(#paint1_radial)"/>
<path d="M28.9573 26.8395H20.0964V2.98657C20.0964 1.33596 18.8032 0 17.244 0H2.00917C-0.230568 4.90063 -0.913536 10.2537 1.60649 15.2013C6.12399 23.7773 11.0635 31.6568 13.8883 40.2012L28.9573 26.8395Z" transform="translate(3.43981 34.1593) rotate(-90)" fill="url(#paint2_linear)"/>
<defs>
<linearGradient id="paint0_linear" x2="1" gradientUnits="userSpaceOnUse" gradientTransform="translate(54.385 -5.30758) scale(50.6555) rotate(90)">
<stop stop-color="#00008D"/>
<stop offset="1" stop-color="#0053BD"/>
</linearGradient>
<radialGradient id="paint1_radial" cx="0.5" cy="0.5" r="0.5" gradientUnits="userSpaceOnUse" gradientTransform="translate(97.0436 71.6991) scale(116.258 130.018) rotate(180)">
<stop stop-color="white"/>
<stop offset="0.0571753" stop-color="#DDEEFF"/>
<stop offset="0.132927" stop-color="#B5DAFF"/>
<stop offset="0.19331" stop-color="#9DCEFF"/>
<stop offset="0.230337" stop-color="#94CAFF"/>
<stop offset="0.595506" stop-color="#0B74FF"/>
<stop offset="0.814607" stop-color="#0035ED"/>
</radialGradient>
<linearGradient id="paint2_linear" x2="1" gradientUnits="userSpaceOnUse" gradientTransform="translate(31.8047 35.5575) scale(37.9783) rotate(172.699)">
<stop stop-color="white"/>
<stop offset="1" stop-color="#74AEFF"/>
</linearGradient>
</defs>
</svg>